<svg version="1.0" xmlns="http://www.w3.org/2000/svg" width="66.667" height="66.667" viewBox="0 0 50 50">
  <path d="M6.503.164c-.688.332-.924.81-1.11 2.305-.197 1.514.137 3.438.933 5.4l.324.782-.678.176c-1.876.478-3.723 1.982-4.557 3.7-.384.792-.58 1.837-.501 2.667.058.576.049.605-.236.81-.491.362-.678.762-.678 1.446 0 .654 5.786 30.831 6.051 31.544.079.225.304.547.491.713l.344.293h25.51l.324-.264a2.13 2.13 0 0 0 .501-.693c.108-.234.226-.41.256-.39.04.019.353.165.707.341.354.166.904.381 1.228.469.855.234 2.593.293 3.477.117.55-.107.816-.117 1.08-.039.59.176 2.908.146 3.645-.059 2.8-.742 5.05-3.281 6.06-6.846.217-.752.256-1.152.296-2.617.059-2.06-.06-2.773-.688-4.014-.992-1.992-2.859-3.017-5.471-3.017-.875-.01-1.268.039-1.749.195l-.619.195.069-.351c.108-.577.58-1.797.874-2.266.148-.244.491-.674.747-.957.825-.899.864-1.826.108-2.578-.717-.713-1.7-.713-2.495 0-1.297 1.162-2.377 3.31-2.75 5.469-.109.644-.138.713-.325.654-.108-.03-.412-.107-.678-.166-.255-.068-.49-.176-.52-.244-.03-.069.619-3.604 1.444-7.852 1.346-6.963 1.483-7.764 1.385-8.106-.226-.732-.884-1.26-1.582-1.26h-.304l.078-.761c.118-1.114.06-2.588-.117-3.428-.089-.41-.354-1.143-.59-1.621-.737-1.514-1.758-2.403-3.438-2.95-.707-.234-.933-.263-2.26-.263-1.247 0-1.57.029-2.082.205-.461.156-.619.175-.619.078 0-.332.54-1.924.865-2.53.196-.37.6-.937.894-1.25.383-.41.57-.713.648-1.035.295-1.162-.481-2.168-1.67-2.168-.648 0-1.05.225-1.709.947-1.248 1.377-2.26 3.643-2.525 5.665-.029.283-.117.517-.176.517-.06 0-.374-.097-.698-.215-.481-.166-.854-.214-1.984-.234l-1.395-.02-.52-.625c-.708-.81-1.543-1.484-2.387-1.884-.885-.42-1.376-.528-2.427-.537-1.827 0-4.047 1.054-5.235 2.51l-.433.527-.157-.371c-.51-1.211-.678-2.666-.5-4.249.078-.713.078-.771-.178-1.191C8.35.076 7.308-.236 6.503.164zm9.675 7.11c.197.078.649.449 1.012.81.766.782 1.523 2.198 1.867 3.487.265.976.363 2.803.206 3.584l-.118.566H4.528l-.068-.547c-.04-.332-.02-.693.049-.918.157-.537.972-1.367 1.7-1.767.579-.313.677-.332 1.551-.332.747.01 1.032.049 1.405.215.923.42 1.513.38 2.141-.137.442-.371.6-.762.668-1.69.089-1.006.403-1.758.983-2.334.373-.37 1.149-.83 1.68-.996.412-.127 1.168-.098 1.541.059zm7.25 3.203c.619.303 1.07.703 1.483 1.29.423.624.806.888 1.385.985.629.098 1.189-.205 1.798-.976.57-.713 1.247-1.26 1.866-1.475.943-.332 2.721-.049 3.261.508.776.8 1.022 2.51.659 4.395l-.099.517H22.838v-1.836c0-1.562-.039-1.953-.225-2.685-.118-.479-.217-.909-.217-.967 0-.127.54-.01 1.032.244zm11.886 9.268c-.04.283-.177.918-.295 1.396-1.611 6.212-7.544 10.206-15.137 10.206-7.367 0-13.124-3.604-15.02-9.414-.176-.547-.373-1.3-.432-1.67-.069-.381-.137-.762-.157-.86-.03-.156.766-.166 15.54-.166h15.57l-.07.508zM8.497 31.815c7.082 4.376 17.396 4.005 23.9-.859.49-.38.903-.644.903-.605 0 .078-.413 2.207-.54 2.822-.04.147-.207.283-.511.42-1.444.635-2.534 2.08-2.986 3.975-.187.752-.207 1.055-.157 2.422.058 1.787.284 2.832.933 4.336.402.918.412 1.006.167 2.031l-.05.225h-10.51c-9.911 0-10.5-.01-10.55-.176-.03-.088-.737-3.75-1.581-8.125a1765.49 1765.49 0 0 0-1.592-8.184c-.039-.186.118-.088.816.469.48.38 1.277.947 1.758 1.25zM36.6 36.758c.55.254 1.052.703 1.474 1.348.314.469.982.86 1.464.86.51 0 1.139-.391 1.62-1.026.816-1.055 1.533-1.445 2.653-1.455.785 0 1.542.215 1.925.547 1.228 1.074 1.012 4.54-.432 6.895-1.189 1.953-2.77 2.607-4.97 2.07-.777-.186-.777-.186-1.622.02-2.387.566-4.037-.284-5.225-2.706-.6-1.23-.884-2.383-.884-3.652-.01-1.065.108-1.621.461-2.227.275-.478.639-.693 1.415-.879a3.494 3.494 0 0 1 2.121.205z" fill="#FFA5BA"/>
</svg>
