<svg version="1.0" xmlns="http://www.w3.org/2000/svg" width="44" height="66.667" viewBox="0 0 33 50">
  <path d="M3.54.213c-.566.322-.758.781-.758 1.777 0 1.162.211 2.032.72 2.94l.422.752-.48.557c-1.621 1.816-1.602 4.443.048 6.123 1.602 1.63 4.048 1.67 5.938.088l.566-.46.729.343c.403.185.892.4 1.084.468l.345.117.058 1.28c.077 1.758.393 2.637 1.266 3.525 1.382 1.397 3.655 1.66 5.305.596 1.343-.86 1.91-2.021 2.005-4.121l.058-1.28.345-.117a19.09 19.09 0 0 0 1.084-.468l.739-.352.46.39c1.228 1.036 2.293 1.387 3.655 1.192 1.842-.264 3.271-1.719 3.588-3.643.201-1.26-.23-2.636-1.161-3.681l-.48-.557.422-.752c.509-.908.72-1.778.72-2.94 0-.996-.192-1.455-.767-1.787l-.365-.205H3.885L3.54.213zm22.88 3.37c-.855 1.337-1.094 1.835-1.094 2.284 0 .254.038.577.095.723.048.137.509.684 1.008 1.211.988 1.035 1.15 1.358.959 1.836-.163.4-.499.615-.94.615-.336 0-.451-.088-1.295-.918-1.017-1.006-1.238-1.132-1.928-1.132-.365 0-.586.078-1.113.41-.921.556-1.9 1.006-2.705 1.24-.998.273-1.363.479-1.64.918-.26.39-.26.42-.289 2.334l-.038 1.934-.288.293c-.393.41-.911.41-1.304 0l-.288-.293-.039-1.934c-.028-1.914-.028-1.943-.287-2.334-.279-.44-.643-.645-1.64-.918-.807-.234-1.785-.684-2.706-1.24-.556-.342-.739-.41-1.18-.41-.278 0-.604.048-.72.107-.114.068-.632.527-1.14 1.025-.845.83-.96.918-1.296.918-.441 0-.777-.214-.94-.615-.192-.478-.029-.8.96-1.836.498-.527.959-1.074 1.006-1.21.058-.147.096-.47.096-.724 0-.449-.24-.947-1.093-2.285l-.173-.263h20.184l-.173.263zM.911 20.497a2.23 2.23 0 0 0-.652.488c-.23.283-.259.4-.259.996 0 .743 4.758 26.251 5.046 27.023.105.283.288.517.547.713l.383.283h21.047l.384-.283c.26-.196.441-.43.547-.713C28.242 48.232 33 22.724 33 21.98c0-.595-.029-.713-.26-.996a2.216 2.216 0 0 0-.651-.488c-.365-.176-1.046-.186-15.589-.186-14.543 0-15.224.01-15.589.186zM29.26 23.7c-.01.322-.422 1.895-.662 2.53-1.458 3.838-4.7 6.347-9.344 7.236-1.237.235-4.269.235-5.506 0-4.643-.889-7.886-3.398-9.344-7.236-.24-.635-.652-2.208-.662-2.53 0-.039 5.746-.068 12.759-.068 7.022 0 12.759.03 12.759.068zM5.89 33.622c1.545 1.28 4.048 2.442 6.389 2.95 2.638.586 5.804.586 8.442 0 2.35-.518 4.844-1.67 6.408-2.96.22-.185.422-.322.45-.302.02.03-.517 3.008-1.208 6.621a857.938 857.938 0 0 0-1.237 6.66c0 .05-3.838.089-8.634.089-4.749 0-8.634-.04-8.634-.079 0-.097-2.379-12.744-2.465-13.086-.067-.293.029-.273.49.107z" fill="#FFA5BA"/>
</svg>
