<svg version="1.0" xmlns="http://www.w3.org/2000/svg" width="58.667" height="66.667" viewBox="0 0 44 50">
  <path d="M10.957.193c-4.056.967-7.055 4.561-8.052 9.62-.224 1.143-.31 3.799-.155 5.059.722 6.23 4.916 12.285 13.106 18.926.765.615 1.581 1.27 1.83 1.455l.447.342V50h7.735V35.595l.447-.342c.25-.185 1.065-.84 1.83-1.455 8.19-6.64 12.384-12.696 13.106-18.926.155-1.26.069-3.916-.154-5.06-1.178-5.976-5.114-9.814-10.055-9.814-3.223 0-5.303 1.211-8.062 4.698-.704.898-1.254.898-1.96 0C18.753 1.834 17.146.662 14.748.145c-.954-.206-2.81-.186-3.79.048zm3.954 3.096c1.297.479 2.423 1.328 3.334 2.5 1.427 1.866 1.968 2.295 3.145 2.53.482.088.74.088 1.22 0 1.178-.235 1.72-.664 3.146-2.53.92-1.191 2.097-2.06 3.42-2.53.413-.146.783-.185 1.891-.185 1.332 0 1.401.02 2.192.323 2.612 1.025 4.366 3.32 5.165 6.738.129.547.189 1.182.223 2.364.043 1.748-.077 2.773-.515 4.248l-.207.683-.378.03c-.765.068-1.246-.489-1.332-1.553-.206-2.5-1.77-4.19-3.902-4.19-1.366 0-2.5.674-3.214 1.895-.558.957-.593 1.152-.644 3.574-.043 1.963-.069 2.237-.224 2.52-.49.937-1.624.947-2.131.02-.172-.313-.19-.508-.24-2.54-.044-2.265-.095-2.598-.473-3.29-.791-1.446-1.934-2.179-3.386-2.179-1.367 0-2.501.674-3.215 1.895-.558.957-.593 1.152-.644 3.574-.043 1.963-.069 2.237-.224 2.52-.498.937-1.65.937-2.148 0-.155-.283-.18-.557-.223-2.52-.052-2.422-.086-2.617-.645-3.574-.713-1.22-1.848-1.895-3.214-1.895-2.131 0-3.696 1.69-3.902 4.19-.086 1.064-.567 1.621-1.332 1.553l-.378-.03-.206-.683c-.439-1.475-.559-2.5-.516-4.248.034-1.182.095-1.817.224-2.364.867-3.74 2.956-6.201 5.895-6.973.748-.195 2.75-.117 3.438.127zm-2.604 11.622c.137.097.335.332.438.517.172.313.189.508.24 2.54.044 2.265.095 2.597.473 3.29.79 1.446 1.934 2.178 3.386 2.178 1.453 0 2.596-.732 3.386-2.177.378-.694.43-1.026.473-3.291.043-1.963.069-2.237.223-2.52.49-.938 1.625-.947 2.132-.02.172.313.189.508.24 2.54.043 2.265.095 2.597.473 3.29.79 1.446 1.934 2.178 3.386 2.178 1.366 0 2.5-.673 3.214-1.894.559-.957.593-1.153.645-3.574.043-1.963.068-2.237.223-2.52.481-.908 1.624-.947 2.106-.068.094.166.197.644.249 1.084.155 1.416.593 2.343 1.452 3.125.267.234.714.527.989.644.266.108.49.215.49.235 0 .02-.198.361-.447.742-2.26 3.613-5.982 7.432-11.035 11.328-1.556 1.202-1.968 1.387-3.042 1.387-1.075 0-1.487-.185-3.043-1.387-5.053-3.896-8.774-7.715-11.034-11.328-.25-.381-.447-.723-.447-.742 0-.02.223-.127.498-.235.267-.117.714-.41.98-.644.86-.782 1.298-1.71 1.452-3.125.095-.86.258-1.24.645-1.534.318-.234.91-.244 1.255-.02zm10.983 27.1v5.06h-2.578v-10.11h2.578v5.05z" fill="#FFA5BA"/>
</svg>
