<svg version="1.0" xmlns="http://www.w3.org/2000/svg" width="14.667" height="13.333" viewBox="0 0 11 10">
  <path d="M6.203.866c-.105.037-.204.111-.44.332-.258.236-.318.347-.303.549.007.09.028.17.058.226.035.06.404.41 1.222 1.156L7.913 4.2l-3.724.004-3.727.006-.108.045a.573.573 0 0 0-.302.268C.004 4.614 0 4.64 0 4.992v.374l.067.119c.068.125.17.214.313.273.078.031.325.033 3.82.04l3.735.003-1.205 1.1C5.402 8.109 5.456 8.053 5.456 8.3c0 .18.084.305.372.56.133.12.274.233.315.252.106.053.451.053.559.002.103-.05 4.154-3.732 4.227-3.841.052-.078.058-.108.058-.274 0-.142-.009-.2-.039-.254C10.893 4.653 6.844.967 6.725.903 6.648.862 6.6.853 6.457.846a.872.872 0 0 0-.254.02z"/>
</svg>
