<svg aria-hidden="true" style="position: absolute; width: 0; height: 0; overflow: hidden;" version="1.1" xmlns="http://www.w3.org/2000/svg" xmlns:xlink="http://www.w3.org/1999/xlink">
<defs>
<symbol id="facebook" viewBox="0 0 16 32">
<path fill="#fff" style="fill: var(--color1, #fff)" d="M14.266 15.97h-4.176v15.39h-6.328v-15.392h-3.008v-5.408h3.008v-3.498c0-2.504 1.184-6.422 6.384-6.422l4.688 0.019v5.25h-3.402c-0.557 0-1.342 0.282-1.342 1.475v3.184h4.73l-0.554 5.4z"></path>
</symbol>
<symbol id="telegram" viewBox="0 0 40 32">
<path fill="#fff" style="fill: var(--color1, #fff)" d="M16.206 20.75l-0.636 8.34c0.908 0 1.302-0.366 1.774-0.802l4.26-3.8 8.83 6.034c1.62 0.84 2.76 0.398 3.196-1.39l5.796-25.346h0.002c0.514-2.236-0.866-3.108-2.444-2.56l-34.064 12.172c-2.324 0.84-2.29 2.052-0.396 2.6l8.71 2.528 20.23-11.814c0.952-0.588 1.816-0.264 1.104 0.326l-16.362 13.712z"></path>
</symbol>
<symbol id="github" viewBox="0 0 32 32">
<path fill="#fff" style="fill: var(--color1, #fff)" d="M16 0.941c-8.272 0-15.059 6.789-15.059 15.059 0 7.059 4.954 13.47 11.53 15.059v-4.982c-0.651 0.144-1.251 0.147-1.915-0.048-0.89-0.264-1.613-0.856-2.149-1.76-0.342-0.576-0.949-1.203-1.581-1.157l-0.155-1.758c1.368-0.117 2.55 0.834 3.253 2.014 0.312 0.525 0.672 0.832 1.133 0.968 0.445 0.131 0.923 0.069 1.482-0.128 0.139-1.117 0.651-1.536 1.037-2.123-3.922-0.586-5.485-2.667-6.106-4.309-0.822-2.181-0.381-4.906 1.072-6.627 0.029-0.032 0.080-0.122 0.061-0.182-0.667-2.014 0.144-3.68 0.176-3.856 0.768 0.227 0.893-0.229 3.341 1.258l0.422 0.254c0.176 0.106 0.122 0.045 0.299 0.032 0.943-0.266 2.029-0.428 3.15-0.445l0.010-0c1.147 0.018 2.247 0.183 3.294 0.478l-0.090-0.022 0.138 0.014c-0.013-0.002 0.037-0.010 0.12-0.059 3.056-1.851 2.947-1.246 3.766-1.512 0.030 0.176 0.832 1.869 0.171 3.856-0.088 0.275 2.651 2.784 1.133 6.811-0.621 1.643-2.184 3.723-6.106 4.309 0.502 0.768 1.107 1.174 1.104 2.755v6.219c6.576-1.589 11.53-8 11.53-15.059 0-8.272-6.787-15.059-15.059-15.059z"></path>
</symbol>
<symbol id="logo-nav" viewBox="0 0 50 50">
<path fill="#C7133E" style="fill: var(--color1, #C7133E)" d="M22.088.182c0 .08-.562.24-1.225.3-1.626.181-4.92 1.286-6.927 2.29-5.402 2.73-9.619 7.41-11.928 13.192C1.225 17.952.863 19.418.482 22.33c-.924 7.229 1.887 15.04 7.37 20.381 1.867 1.807 4.076 3.373 6.124 4.357.863.402 1.747.844 1.947.944.563.301.743.04.743-1.104v-1.065l-1.224-.441c-1.466-.542-3.073-1.828-3.715-2.972-.904-1.627-1.085-2.711-1.085-6.426 0-3.433 0-3.494-.441-3.654-.703-.261-1.727-1.346-2.089-2.169-.803-1.887-.12-4.277 1.567-5.381l.903-.603-.02-2.51c-.02-2.269.04-2.67.562-4.136 1.326-3.755 4.297-6.627 8.655-8.333 2.73-1.085 7.71-1.065 10.843.04 3.353 1.204 6.426 3.855 7.871 6.807 1.045 2.128 1.366 3.835 1.185 6.365-.1 1.466-.08 1.868.14 1.868.442 0 1.748 1.224 2.19 2.068.3.582.441 1.205.461 2.048 0 1.506-.703 2.811-2.008 3.715l-.903.622v3.655c-.02 2.932-.08 3.835-.362 4.598a7.491 7.491 0 0 1-4.578 4.478l-1.104.382.06 1.104c.08 1.325.12 1.325 2.168.361 6.888-3.253 12.27-10.06 13.695-17.309.502-2.59.502-7.65-.02-10.24-1.265-6.567-6.245-13.293-12.29-16.607C34.92 1.95 30.322.403 28.876.403c-.301 0-.602-.101-.663-.201-.16-.241-6.124-.282-6.124-.02z"></path>
<path fill="#C7133E" style="fill: var(--color1, #C7133E)" d="M22.992 11.346c-.763.14-1.908.442-2.51.663-1.225.482-3.555 1.988-3.715 2.41-.382 1.023 2.61 2.971 5.482 3.573 3.996.844 8.875-.24 10.783-2.369.381-.422.702-.843.702-.944 0-.341-1.827-1.646-3.253-2.329-1.445-.683-4.216-1.325-5.481-1.285-.322.02-1.225.14-2.008.281z"></path>
<path fill="#C7133E" style="fill: var(--color1, #C7133E)" d="M13.996 18.876c-.382 1.365-.442 3.454-.12 4.398l.22.622H25.12c12.771 0 11.426.301 11.426-2.57 0-1.587-.422-3.655-.743-3.655-.06 0-.442.261-.844.583-.662.522-2.028 1.285-3.233 1.787-.943.401-2.71.803-4.578 1.064-3.956.522-8.614-.562-11.586-2.71-.542-.403-1.064-.724-1.124-.724-.06 0-.262.542-.442 1.205zm-2.711 8.674c-.14.141-.241.543-.241.904 0 1.285-.341 1.265 14.257 1.265h13.072l.482-.502c.602-.582.642-1.124.14-1.566-.341-.321-1.586-.341-13.915-.341-10.281 0-13.614.06-13.795.24zm2.369 8.113c0 2.53.04 2.791.543 3.855.642 1.366 1.405 2.109 2.83 2.771 1.045.482 1.085.482 8.073.482 6.064 0 7.128-.04 7.871-.341 1.306-.502 2.47-1.546 3.053-2.711.481-.984.522-1.225.522-3.916v-2.871h-2.35l-.12 1.867c-.14 2.008-.422 2.792-1.386 3.755-.823.844-1.807 1.205-3.172 1.205-2.731 0-4.418-1.988-4.418-5.2v-1.627H13.654v2.73z"></path>
<path fill="#C7133E" style="fill: var(--color1, #C7133E)" d="M27.911 34.338c0 1.285.06 1.465.522 1.907.342.321.783.502 1.165.502 1.205-.02 1.727-.823 1.727-2.59v-1.225H27.91v1.406zm-8.152 11.706c-.06.16-.08.904-.04 1.667l.06 1.385 1.004.261c1.385.382 6.646.422 8.393.06l1.346-.26v-3.374H25.2c-4.297 0-5.361.06-5.441.261z"></path>
</symbol>

<symbol id="icon-arrow-pink" viewBox="0 0 26 32">
<path fill="none" stroke="#d41443" style="stroke:var(--color1, #d41443)" stroke-linejoin="round" stroke-linecap="round" stroke-width="6.4" d="M5.171 3.2 19.341 16 5.171 28.8"/>
</symbol>
<symbol id="icon-arrow-white" viewBox="0 0 26 32">
<path fill="none" stroke="#fff" style="stroke:var(--color2, #fff)" stroke-linejoin="round" stroke-linecap="round" stroke-width="6.4" d="M5.171 3.2 19.341 16 5.171 28.8"/>
</symbol>

<symbol id="icon-about-icon-1" viewBox="0 0 21 32">
<path fill="#ffa5ba" style="fill:var(--color1, #ffa5ba)" d="M2.266.136c-.362.206-.485.5-.485 1.137 0 .744.135 1.3.461 1.882l.27.481-.307.356c-1.037 1.162-1.025 2.844.031 3.919 1.025 1.043 2.591 1.069 3.8.056l.362-.294.467.22c.258.118.571.256.694.3l.221.075.037.819c.049 1.125.252 1.688.81 2.256.884.894 2.339 1.062 3.395.381.86-.55 1.222-1.293 1.283-2.637l.037-.819.221-.075c.314-.123.543-.224.767-.331l-.074.032.473-.225.294.25c.786.663 1.468.888 2.339.763 1.179-.169 2.093-1.1 2.296-2.332.129-.806-.147-1.687-.743-2.356l-.307-.356.27-.481c.326-.581.461-1.138.461-1.882 0-.637-.123-.931-.491-1.144L18.614 0H2.485l-.221.138zm14.643 2.157c-.547.856-.7 1.174-.7 1.462 0 .163.024.369.061.463.031.088.326.438.645.775.632.662.736.869.614 1.175-.104.256-.319.394-.602.394-.215 0-.289-.056-.829-.588-.651-.644-.792-.724-1.234-.724-.234 0-.375.05-.712.262-.589.356-1.216.644-1.731.794-.639.175-.872.307-1.05.588-.166.25-.166.269-.185 1.494l-.024 1.238-.184.188c-.252.262-.583.262-.835 0l-.184-.188-.025-1.238c-.018-1.225-.018-1.244-.184-1.494-.179-.282-.412-.413-1.05-.588-.516-.15-1.142-.438-1.732-.794-.356-.219-.473-.262-.755-.262-.178 0-.387.031-.461.068-.073.044-.404.337-.73.656-.541.531-.614.588-.829.588-.282 0-.497-.137-.602-.394-.123-.306-.019-.512.614-1.175.319-.337.614-.687.644-.774.037-.094.061-.301.061-.463 0-.287-.154-.606-.7-1.462l-.111-.168h12.918l-.111.168zM.583 13.118c-.162.081-.3.186-.416.311l-.001.001c-.147.181-.166.256-.166.637 0 .476 3.045 16.801 3.229 17.295a.999.999 0 0 0 .35.456l.245.181h13.47l.246-.181c.166-.125.282-.275.35-.456.184-.494 3.229-16.819 3.229-17.295 0-.381-.019-.456-.166-.637a1.42 1.42 0 0 0-.408-.309l-.008-.004c-.234-.113-.669-.119-9.977-.119s-9.743.006-9.977.119zm18.143 2.05c-.006.206-.27 1.213-.424 1.619-.933 2.456-3.008 4.062-5.98 4.631-.792.15-2.732.15-3.524 0-2.972-.569-5.047-2.175-5.98-4.631-.154-.406-.417-1.413-.424-1.619 0-.025 3.677-.044 8.166-.044 4.494 0 8.166.019 8.166.044zM3.77 21.518c.989.819 2.591 1.563 4.089 1.888 1.688.375 3.715.375 5.403 0 1.504-.332 3.1-1.069 4.101-1.894.141-.118.27-.206.288-.193.013.019-.331 1.925-.773 4.237.283-2.027.007-.583-.263.863l-.528 3.4c0 .032-2.456.057-5.526.057-3.039 0-5.526-.026-5.526-.051 0-.062-1.523-8.156-1.578-8.375-.043-.188.019-.175.314.068z"/>
</symbol>
<symbol id="icon-about-icon-2" viewBox="0 0 32 32">
<path fill="#ffa5ba" style="fill:var(--color1, #ffa5ba)" d="M4.162.105c-.44.212-.591.518-.71 1.475-.126.969.088 2.2.597 3.456l.207.5-.434.113C2.621 5.955 1.439 6.917.906 8.017.66 8.524.535 9.193.585 9.724c.037.369.031.387-.151.518-.314.232-.434.488-.434.925 0 .419 3.703 19.732 3.873 20.188.051.144.195.35.314.456l.22.188h16.326l.207-.169c.133-.122.241-.27.317-.435l.003-.008c.069-.15.145-.262.164-.25.026.012.226.106.452.218.227.106.579.244.786.3.547.15 1.66.188 2.225.075.352-.068.522-.075.691-.025.378.113 1.861.093 2.333-.038 1.792-.475 3.232-2.1 3.878-4.381.139-.481.164-.737.189-1.675.038-1.318-.038-1.775-.44-2.569-.635-1.275-1.83-1.931-3.501-1.931-.56-.006-.812.025-1.119.125l-.396.125.044-.225c.069-.369.371-1.15.559-1.45.095-.156.314-.431.478-.612.528-.575.553-1.169.069-1.65-.459-.456-1.088-.456-1.597 0-.83.744-1.521 2.118-1.76 3.5-.07.412-.088.456-.208.419a11.725 11.725 0 0 0-.434-.106c-.163-.044-.314-.113-.333-.156s.396-2.307.924-5.025c.861-4.456.949-4.969.886-5.188-.145-.468-.566-.806-1.012-.806h-.195l.05-.487c.076-.713.038-1.656-.075-2.194a5.519 5.519 0 0 0-.378-1.037c-.472-.969-1.125-1.538-2.2-1.888-.452-.15-.597-.168-1.446-.168-.798 0-1.005.019-1.332.131-.295.1-.396.112-.396.05 0-.212.346-1.231.554-1.619.125-.237.384-.6.572-.8.245-.262.365-.456.415-.662C19.896.644 19.399 0 18.638 0c-.415 0-.672.144-1.094.606-.799.881-1.446 2.332-1.616 3.626-.019.181-.075.331-.113.331s-.239-.062-.447-.138c-.308-.106-.547-.137-1.27-.15l-.893-.013-.333-.4c-.453-.518-.988-.95-1.528-1.206-.566-.269-.881-.338-1.553-.344-1.169 0-2.59.675-3.35 1.606l-.277.337-.1-.237c-.326-.775-.434-1.706-.32-2.719.05-.456.05-.493-.114-.762A1.153 1.153 0 0 0 4.159.106zm6.192 4.55c.126.05.415.287.648.518.49.5.975 1.407 1.195 2.232.17.625.232 1.794.132 2.294l-.076.362H2.898l-.044-.35a1.576 1.576 0 0 1 .031-.588c.1-.344.622-.875 1.088-1.131.371-.2.433-.212.993-.212.478.006.66.031.899.138.591.269.968.243 1.37-.088.283-.237.384-.488.428-1.082.057-.644.258-1.125.629-1.494.239-.237.735-.531 1.075-.637.264-.081.748-.063.986.038zm4.64 2.05c.396.194.685.45.949.826.271.399.516.568.886.63.403.063.761-.131 1.151-.625.365-.456.798-.806 1.194-.944.604-.212 1.741-.031 2.087.325.497.512.654 1.606.422 2.813l-.063.331h-7.004V8.886c0-1-.025-1.25-.144-1.718a7.969 7.969 0 0 1-.139-.619c0-.081.346-.006.66.156zm7.607 5.932c-.026.181-.113.588-.189.893-1.031 3.976-4.828 6.532-9.688 6.532-4.715 0-8.399-2.307-9.613-6.025a8.902 8.902 0 0 1-.276-1.069 91.087 91.087 0 0 0-.1-.55c-.019-.1.49-.106 9.946-.106h9.965l-.045.325zM5.438 20.362c4.532 2.801 11.133 2.563 15.296-.55.314-.243.578-.412.578-.387 0 .05-.264 1.412-.346 1.806-.026.094-.132.181-.327.269-.924.406-1.622 1.331-1.911 2.544-.12.481-.132.675-.1 1.55.037 1.144.182 1.812.597 2.775.257.588.264.644.107 1.3l-.032.144h-6.726c-6.343 0-6.72-.006-6.752-.113-.019-.056-.472-2.4-1.012-5.2-1.533-8.949-1.888-10.721-2.246-12.492l1.227 7.254c-.025-.119.076-.056.522.3.307.243.817.606 1.125.8zm17.986 3.163c.352.163.673.45.943.863.201.3.628.55.937.55.326 0 .729-.25 1.037-.657.522-.675.981-.925 1.698-.931.502 0 .987.138 1.232.35.786.687.648 2.906-.276 4.413-.761 1.25-1.773 1.668-3.181 1.325-.497-.119-.497-.119-1.038.013-1.528.362-2.584-.182-3.344-1.732-.384-.787-.566-1.525-.566-2.337-.006-.682.069-1.037.295-1.425.176-.306.409-.444.906-.563a2.225 2.225 0 0 1 1.372.137l-.014-.006z"/>
</symbol>
<symbol id="icon-about-icon-3" viewBox="0 0 28 32">
<path fill="#ffa5ba" style="fill:var(--color1, #ffa5ba)" d="M7.013.124C4.417.743 2.498 3.043 1.86 6.281c-.143.732-.198 2.431-.099 3.238.462 3.987 3.146 7.862 8.388 12.113.49.394 1.012.813 1.171.931l.286.219v9.219h4.95v-9.219l.286-.219c.16-.118.682-.538 1.171-.931 5.242-4.25 7.926-8.125 8.388-12.113.099-.806.044-2.506-.099-3.238C25.548 2.456 23.029 0 19.867 0c-2.063 0-3.394.775-5.16 3.007-.451.575-.803.575-1.254 0C12.002 1.175 10.974.425 9.439.094c-.611-.132-1.798-.119-2.426.031zm2.53 1.981c.83.307 1.551.85 2.134 1.6.913 1.194 1.26 1.469 2.013 1.619.308.056.474.056.781 0 .754-.15 1.101-.425 2.013-1.619.589-.762 1.342-1.318 2.189-1.619.264-.093.501-.118 1.21-.118.852 0 .897.013 1.403.207 1.672.656 2.794 2.125 3.306 4.312.083.35.121.756.143 1.513.028 1.119-.049 1.775-.33 2.719l-.132.437-.242.019c-.49.044-.797-.313-.852-.994-.132-1.6-1.133-2.682-2.497-2.682-.874 0-1.6.431-2.057 1.213-.357.612-.38.737-.412 2.287-.028 1.256-.044 1.432-.143 1.613-.314.6-1.039.606-1.364.013-.11-.2-.122-.325-.154-1.626-.028-1.45-.061-1.663-.303-2.106-.506-.925-1.238-1.395-2.167-1.395-.875 0-1.601.431-2.058 1.213-.357.612-.38.737-.412 2.287-.028 1.256-.044 1.432-.143 1.613-.319.6-1.056.6-1.375 0-.099-.181-.115-.356-.143-1.613-.033-1.55-.055-1.675-.413-2.287-.456-.781-1.183-1.213-2.057-1.213-1.364 0-2.365 1.082-2.497 2.682-.055.681-.363 1.037-.852.994l-.242-.019-.132-.437c-.281-.944-.358-1.6-.33-2.719.022-.756.061-1.163.143-1.513.555-2.394 1.892-3.969 3.773-4.463.479-.125 1.76-.075 2.2.081zM7.877 9.543c.088.062.214.212.28.331.11.2.121.325.154 1.626.028 1.45.061 1.662.303 2.106C9.12 14.531 9.852 15 10.781 15s1.661-.468 2.167-1.393c.242-.444.275-.657.303-2.106.028-1.256.044-1.432.143-1.613.314-.6 1.04-.606 1.364-.013.11.2.121.325.154 1.626.028 1.45.061 1.662.303 2.106.506.925 1.238 1.394 2.167 1.394.874 0 1.6-.431 2.057-1.212.358-.612.38-.738.413-2.287.028-1.256.044-1.432.143-1.613.308-.581 1.039-.606 1.348-.044.06.106.126.412.159.694.099.906.38 1.5.929 2 .171.15.457.337.633.412.17.069.314.138.314.15s-.127.231-.286.475c-1.446 2.312-3.828 4.756-7.062 7.25-.996.769-1.26.888-1.947.888s-.952-.118-1.948-.888c-3.234-2.493-5.615-4.938-7.062-7.25-.16-.244-.286-.463-.286-.475s.143-.081.319-.15c.171-.075.457-.262.627-.412.55-.5.831-1.094.929-2 .061-.55.165-.794.413-.982.204-.15.582-.156.803-.013zm7.029 17.344v3.238h-1.65v-6.47h1.65v3.232z"/>
</symbol>
<symbol id="icon-quotes" viewBox="0 0 32 32">
<path fill="#e1e1e1" style="fill:var(--color2, #e1e1e1)" d="M23.714 4.148c1.428 0 2.777.385 4.047 1.156s2.302 1.879 3.095 3.324c.762 1.445 1.143 3.148 1.143 5.107s-.476 3.87-1.428 5.733c-.318.674-.889 1.541-1.715 2.601a47.007 47.007 0 0 1-2.38 2.746l-3 3.035-2.143-3.565a16.477 16.477 0 0 0 3.931-3.442l.022-.027C26.429 19.467 27 18.231 27 17.106c0-.578-.127-1.044-.38-1.397a6.194 6.194 0 0 1-3.714 1.205c-.984 0-1.921-.305-2.809-.916a6.394 6.394 0 0 1-2.174-2.28l-.016-.032c-.571-.932-.857-1.895-.857-2.891 0-1.125.333-2.2 1-3.228a7.635 7.635 0 0 1 2.491-2.486l.033-.019c1.015-.61 2.062-.916 3.142-.916zm-17.095 0c1.428 0 2.777.385 4.047 1.156s2.302 1.879 3.095 3.324c.762 1.445 1.143 3.148 1.143 5.107 0 1.381-.175 2.617-.524 3.71-.35 1.124-.952 2.296-1.81 3.517-.825 1.156-1.603 2.12-2.333 2.891-.73.803-2 2.136-3.81 3.999l-2.143-3.565a16.477 16.477 0 0 0 3.931-3.442l.022-.027c1.143-1.349 1.714-2.585 1.714-3.71 0-.578-.127-1.044-.381-1.397a6.194 6.194 0 0 1-3.714 1.205c-.984 0-1.921-.305-2.809-.916a6.394 6.394 0 0 1-2.174-2.28l-.016-.032C.286 12.756 0 11.793 0 10.797c0-1.125.318-2.2.952-3.228a7.635 7.635 0 0 1 2.491-2.486l.033-.019c1.015-.61 2.062-.916 3.143-.916z"/>
</symbol>
<symbol id="icon-right-arrow" viewBox="0 0 32 32">
<path d="M17.645 4.596c-.299.105-.58.316-1.252.944-.734.671-.905.987-.862 1.562.02.256.08.484.165.643.1.171 1.149 1.166 3.476 3.288l3.337 3.046-21.194.028-.307.128a1.644 1.644 0 0 0-.855.754l-.004.009c-.137.259-.148.333-.148 1.334v1.064l.191.338c.193.356.484.609.89.777.222.088.924.094 10.866.114l10.624.009-3.428 3.129c-3.777 3.436-3.624 3.277-3.624 3.979 0 .512.239.868 1.058 1.593.378.341.779.663.896.717.302.151 1.283.151 1.59.006.293-.142 11.816-10.616 12.024-10.926.148-.222.165-.307.165-.779 0-.404-.026-.569-.111-.723-.156-.262-11.674-10.747-12.012-10.929-.219-.117-.356-.142-.762-.162a2.506 2.506 0 0 0-.74.06l.017-.003z"/>
</symbol>
<symbol id="icon-home" viewBox="0 0 35 32">
<path fill="#d31342" style="fill:var(--color3, #d31342)" d="M34.253 15.613a1.571 1.571 0 0 0-.129-2.254l-.002-.002L19.349.432A1.828 1.828 0 0 0 18.165 0c-.467 0-.893.174-1.217.46l.002-.002L2.129 14.047a1.564 1.564 0 0 0-.071 2.251l.373.387c.613.64 1.611.72 2.224.171l1.107-.992v14.523c0 .893.72 1.613 1.613 1.613h5.773c.891 0 1.613-.72 1.613-1.613v-10.16h7.373v10.16c-.013.891.624 1.613 1.515 1.613h6.123a1.61 1.61 0 0 0 1.611-1.613v-14.32l.685.603c.376.331 1.168.064 1.765-.595l.421-.461z"/>
</symbol>
</defs>
</svg>
